<?xml version="1.0" standalone="no"?>
<!DOCTYPE svg PUBLIC "-//W3C//DTD SVG 1.1//EN" "http://www.w3.org/Graphics/SVG/1.1/DTD/svg11.dtd" >
<svg xmlns="http://www.w3.org/2000/svg">
<metadata>
Created by FontForge 20120731 at Wed Jun 28 16:15:54 2017
 By admin
</metadata>
<defs>
<font id="iconfont" horiz-adv-x="1024" >
  <font-face 
    font-family="iconfont"
    font-weight="500"
    font-stretch="normal"
    units-per-em="1024"
    panose-1="2 0 6 3 0 0 0 0 0 0"
    ascent="896"
    descent="-128"
    x-height="792"
    bbox="25 -108 999 882"
    underline-thickness="0"
    underline-position="0"
    unicode-range="U+0078-E62E"
  />
<missing-glyph 
 />
    <glyph glyph-name=".notdef" 
 />
    <glyph glyph-name=".notdef" 
 />
    <glyph glyph-name=".null" horiz-adv-x="0" 
 />
    <glyph glyph-name="nonmarkingreturn" horiz-adv-x="341" 
 />
    <glyph glyph-name="x" unicode="x" horiz-adv-x="1001" 
d="M281 543q-27 -1 -53 -1h-83q-18 0 -36.5 -6t-32.5 -18.5t-23 -32t-9 -45.5v-76h912v41q0 16 -0.5 30t-0.5 18q0 13 -5 29t-17 29.5t-31.5 22.5t-49.5 9h-133v-97h-438v97zM955 310v-52q0 -23 0.5 -52t0.5 -58t-10.5 -47.5t-26 -30t-33 -16t-31.5 -4.5q-14 -1 -29.5 -0.5
t-29.5 0.5h-32l-45 128h-439l-44 -128h-29h-34q-20 0 -45 1q-25 0 -41 9.5t-25.5 23t-13.5 29.5t-4 30v167h911zM163 247q-12 0 -21 -8.5t-9 -21.5t9 -21.5t21 -8.5q13 0 22 8.5t9 21.5t-9 21.5t-22 8.5zM316 123q-8 -26 -14 -48q-5 -19 -10.5 -37t-7.5 -25t-3 -15t1 -14.5
t9.5 -10.5t21.5 -4h37h67h81h80h64h36q23 0 34 12t2 38q-5 13 -9.5 30.5t-9.5 34.5q-5 19 -11 39h-368zM336 498v228q0 11 2.5 23t10 21.5t20.5 15.5t34 6h188q31 0 51.5 -14.5t20.5 -52.5v-227h-327z" />
    <glyph glyph-name="security-alarm" unicode="&#xe619;" 
d="M511.5 623q-15.5 0 -26 -11t-10.5 -26v-294q0 -14 11 -24.5t25.5 -10.5t25 10.5t11.5 24.5v294q0 15 -10.5 26t-26 11zM475 170v-1q0 -15 10.5 -26t26 -11t26 11t10.5 26v1q0 15 -11 25.5t-25.5 10.5t-25.5 -10.5t-11 -25.5v0zM512 -41h-0.5h-0.5q-94 35 -176.5 123
t-130 200t-47.5 218q0 47 6 77q-1 0 -3.5 -1.5l-2.5 -1.5l9 5l346 220v54h-8l-0.5 -0.5t-1.5 -0.5q-7 -2 -9 -3l-367 -232q-20 -12 -19 -33v0v-17q-1 -6 0 -34t1 -33q0 -116 51 -236.5t145 -216.5t207 -132h1v44v0zM512 -41h0.5h0.5q94 35 176.5 123t130 200t47.5 218
q0 47 -6 77q1 0 3.5 -1.5l2.5 -1.5l-9 5l-346 220v54h8l0.5 -0.5t1.5 -0.5q7 -2 9 -3l367 -232q20 -12 19 -33v0v-17q1 -6 0 -34t-1 -33q0 -116 -51 -236.5t-145 -216.5t-207 -132h-1v44v0z" />
    <glyph glyph-name="keshihua" unicode="&#xe61a;" 
d="M950 578q-35 84 -99 148t-148 100q-86 36 -181 36t-181 -36q-83 -36 -147 -100q-25 -24 -46 -53q0 -1 -1 -2q-31 -42 -53 -93q-36 -86 -36 -181t36 -181q36 -83 100 -147t148 -100q85 -36 180.5 -36t180.5 36q84 36 148 100t100 147q36 86 36 181t-37 181zM872 172
q-48 26 -115 43q17 74 20 158h160q-6 -110 -65 -201v0zM107 373h160q3 -82 20 -158q-65 -17 -115 -43q-59 92 -65 201v0zM174 626q49 -25 114 -42q-18 -77 -21 -162h-160q7 111 68 204h-1zM498 422h-182q2 79 20 151q78 -15 162 -17v-134zM498 373v-130q-86 -2 -163 -17
q-16 69 -19 147h182zM546 373h182q-2 -78 -18 -147q-78 15 -164 17v130zM546 422v134q85 2 162 17q18 -72 20 -151h-182zM546 605v205q26 -6 51 -26q37 -30 67 -87q18 -35 32 -76q-70 -14 -150 -16zM448 784q24 19 50 26v-205q-76 2 -149 16q14 43 32 76q28 56 67 87z
M498 194v-210q-25 7 -50 27q-37 30 -67 86q-19 35 -34 82q73 14 151 15v0zM597 11q-25 -20 -51 -27v210q79 -1 151 -15q-14 -44 -33 -82q-31 -57 -67 -86v0zM777 422q-3 85 -21 162q65 17 113 42q62 -93 68 -204h-160zM816 691q8 -8 24 -25q-42 -20 -97 -34q-14 46 -36 88
q-21 40 -46 70q88 -32 155 -99zM384 790q-25 -29 -47 -70q-20 -40 -36 -88q-54 14 -96 34q8 11 23 25q67 67 156 99zM228 103q-13 14 -26 29q41 21 98 36q15 -50 37 -93q21 -40 47 -70q-89 31 -156 98v0zM661 5q24 28 46 70q22 43 38 93q56 -15 98 -36q-11 -13 -27 -29
q-67 -67 -155 -98v0z" />
    <glyph glyph-name="gis" unicode="&#xe61b;" 
d="M497 48q-127 0 -217 89t-90 215v166q0 13 1 28h611q0 -5 -1.5 -14.5t-1.5 -13.5v-31l27.5 -4.5t27.5 -7.5v43q0 7 -2 31q24 5 40.5 24.5t16.5 44.5v133q0 30 -19 51t-49 21h-689q-30 0 -51 -21t-21 -51v-133q0 -25 16 -44t41 -25q0 -3 -0.5 -9.5t-1 -11.5t-0.5 -10v-165
q0 -98 48.5 -180.5t132 -131t181.5 -48.5q71 0 136 27q-20 29 -32 47q-51 -19 -104 -19v0zM854 618q0 -7 -5 -12t-11 -5h-686q-7 0 -12 5t-5 12v133q0 7 5 11.5t12 4.5h686q6 0 11 -4.5t5 -11.5v-133zM413 297q0 -34 24 -58.5t59 -24.5q14 0 29 5q6 -24 19 -52
q-25 -9 -48 -9q-58 0 -98.5 40.5t-40.5 98t40.5 98t98.5 40.5q46 0 83 -28q-19 -22 -32 -45q-23 18 -51 18q-35 0 -59 -24.5t-24 -58.5v0zM191 712h56v-55h-56v55zM770.5 344q-39.5 0 -67 -27t-27.5 -65.5t27.5 -65.5t67 -27t67 27t27.5 65.5t-27.5 65.5t-67 27zM770 214
q-16 0 -27.5 11t-11.5 26.5t11.5 26.5t28 11t27.5 -11t11 -26.5t-11.5 -26.5t-27.5 -11zM770.5 435q-80.5 0 -137.5 -52t-57 -125q0 -28 20 -71t48.5 -85t57 -80t48.5 -61l20 -23q8 9 21.5 24.5t47 59t59 82t46.5 82.5t21 72q0 73 -57 125t-137.5 52zM631 258q0 50 41 86
t98.5 36t98 -36t40.5 -86q0 -29 -40 -95t-99 -139q-58 72 -98.5 138.5t-40.5 95.5z" />
    <glyph glyph-name="shebei" unicode="&#xe61c;" 
d="M766 837q-11 8 -24.5 5.5t-21 -14t-5 -25t13.5 -21.5q85 -57 133 -147t48 -191q0 -106 -50 -196.5t-136 -146.5t-190 -65v263q40 11 66 44.5t26 75.5q0 51 -36.5 88t-88 37t-88 -37t-36.5 -88q0 -42 25.5 -75.5t65.5 -44.5v-263q-103 9 -189.5 65t-136 146.5t-49.5 196.5
q0 101 47.5 191t132.5 147q11 8 14 21.5t-4.5 25t-21 14t-25.5 -5.5v0v0q-99 -66 -154.5 -170.5t-55.5 -222.5q0 -97 38 -185t101.5 -151.5t151.5 -101t184.5 -37.5t184.5 37.5t151.5 101t101 151.5t37.5 185q0 118 -56 222.5t-154 170.5zM442 419q0 24 17.5 41.5t41.5 17.5
t41 -17.5t17 -41.5t-17 -41t-41 -17t-41.5 17t-17.5 41zM371 201q12 -5 25 0.5t18 18.5q4 12 -1 24t-16 18q-48 20 -77 63.5t-29 95.5q0 50 27 92.5t73 63.5q12 6 16.5 19t-1 25.5t-18.5 17t-26 -1.5q-62 -29 -99.5 -88t-37.5 -128q0 -72 39.5 -132.5t106.5 -87.5zM605 262
q-12 -6 -17 -19t0 -25q6 -12 18 -17t25 0q66 28 106 88t40 132q0 69 -37.5 128t-100.5 88q-12 6 -25 1.5t-19 -17t-1 -25.5t17 -19q46 -21 72.5 -63.5t26.5 -92.5q1 -53 -28 -96t-77 -63v0z" />
    <glyph glyph-name="shezhi" unicode="&#xe61d;" 
d="M863 271h-18q-8 -22 -20 -47l13 -14q22 -22 22 -53.5t-22 -54.5l-54 -53q-22 -23 -53.5 -23t-54.5 23l-13 13q-23 -12 -48 -20v-19q0 -31 -22 -53.5t-54 -22.5h-76q-32 0 -54.5 22.5t-22.5 53.5v19q-21 7 -47 20l-13 -13q-23 -23 -54.5 -23t-53.5 23l-54 53
q-22 23 -22 54.5t22 53.5l13 14q-12 23 -20 47h-19q-31 0 -53.5 22.5t-22.5 53.5v77q0 31 22.5 53.5t53.5 22.5h19q8 22 20 48l-13 13q-22 22 -22 53.5t22 54.5l54 54q22 22 53.5 22t54.5 -22l13 -14q23 12 47 20v18q0 32 22.5 54.5t54.5 22.5h76q32 0 54 -22.5t22 -54.5
v-18q22 -7 48 -20l13 14q22 22 54 22t54 -22l54 -54q22 -23 22 -54.5t-22 -53.5l-13 -13q11 -23 20 -48h18q32 0 54 -22.5t22 -53.5v-77q0 -31 -22 -53.5t-54 -22.5zM896 423q0 16 -11 27t-26 11h-47q-11 46 -38 91l27 28l6 5q11 11 11 27t-11 27l-54 53q-11 11 -26.5 11
t-26.5 -11l-6 -6l-27 -28q-44 27 -91 38v47q0 16 -11 27t-27 11h-75q-16 0 -27 -11t-11 -27v-47q-46 -11 -91 -38l-27 28l-6 6q-11 11 -27 11t-27 -11l-53 -53q-11 -11 -11 -27t11 -27l34 -33q-27 -44 -39 -91h-46q-16 0 -27 -11t-11 -27v-75q0 -15 11 -26.5t27 -11.5h46
q11 -46 39 -90l-34 -34q-11 -11 -11 -26.5t11 -26.5l53 -54q11 -11 27 -11t27 11l33 34q44 -27 91 -38v-47q0 -16 11 -27t27 -11h75q16 0 27 11t11 27v47q45 11 91 38l33 -34q11 -11 26.5 -11t26.5 11l54 54q11 11 11 26.5t-11 26.5l-6 6l-27 28q26 43 38 90h47q15 0 26 11
t11 27v75zM501 195q-79 0 -135 56t-56 134.5t56 134.5t135 56t134.5 -56t55.5 -134.5t-55.5 -134.5t-134.5 -56zM501 533q-61 0 -104 -43t-43 -104t43 -104t104 -43t104 43t43 104t-43 104t-104 43z" />
    <glyph glyph-name="peizhiwenjain" unicode="&#xe61e;" 
d="M838 551l-284 283h-354q-10 0 -17 -7t-7 -16v-803q0 -10 7 -17t17 -7h461q-7 23 -7 47v0h-430v756h331v-190q0 -19 13.5 -32.5t32.5 -13.5h190v-359q15 2 27 2q11 0 20 -1v358zM318 598h142v-48h-142v48zM318 409h378v-48h-378v48zM318 220h378v-47h-378v47zM797 155
q8 0 13.5 -6t5.5 -14v-13l8 -3q1 0 3.5 -1t3.5 -2l8 -3l9 9q5 6 13 6t14 -6q5 -5 5 -13t-5 -14l-10 -9l4 -7q3 -7 3 -8l3 -8h13q8 0 13.5 -5.5t5.5 -13.5t-5.5 -14t-13.5 -6h-13l-3 -7q-1 -1 -2 -4t-1 -4l-4 -7l10 -9q5 -6 5 -14t-5 -14q-5 -5 -14 -5q-8 0 -14 5l-9 10
l-7 -4q-6 -2 -8 -3l-7 -3v-13q0 -7 -6 -13t-14 -6t-13.5 5.5t-5.5 13.5v13l-8 3q-5 2 -8 3l-7 4l-9 -10q-5 -5 -13 -5t-14 5q-6 6 -6 14t6 14l9 9l-3 7q-2 4 -3 8l-3 7h-13q-8 0 -14 6t-6 14t6 13.5t14 5.5h13l3 8q0 1 1 3.5t2 4.5l3 7l-9 9q-6 5 -6 14q0 7 6 13t14 6
q7 0 13 -6l10 -9l7 3q4 3 8 3l7 3v13q0 8 6 14t14 6zM796.5 166q-12.5 0 -21.5 -9t-9 -22v-5q-4 -1 -9 -4l-3 4q-9 9 -21.5 9t-21.5 -9t-9 -21.5t9 -21.5l3 -4q-2 -4 -3 -8h-5q-13 0 -22 -9t-9 -21.5t9 -21.5t22 -9h5q1 -4 3 -9l-3 -4q-9 -9 -9 -21.5t9 -21.5t21.5 -9
t21.5 9l3 4q5 -2 9 -4v-5q0 -12 9 -21t21.5 -9t21.5 9t9 21v5q4 2 9 4l4 -4q8 -9 21 -9t21.5 9t8.5 21.5t-9 21.5l-3 4q2 5 3 9h6q12 0 21 9t9 21.5t-9 21.5t-21 9h-6q-1 4 -3 8l3 4q9 9 9 21.5t-8.5 21.5t-21.5 9t-21 -9l-4 -4q-5 3 -9 4v5q0 13 -9 22t-21.5 9zM796.5 79
q14.5 0 24.5 -10t10 -24.5t-10 -24.5t-24.5 -10t-24.5 10t-10 24.5t10 24.5t24.5 10zM797 90q-19 0 -32.5 -13.5t-13.5 -32t13.5 -32t32 -13.5t32 13.5t13.5 32.5q0 18 -13 31.5t-32 13.5z" />
    <glyph glyph-name="shipin" unicode="&#xe61f;" 
d="M609 536.5q-43 42.5 -104 42.5t-104 -42.5t-43 -103.5t43 -104t104 -43t104 43t43 104t-43 103.5zM505 345q-36 0 -62 25.5t-26 62t26 62.5t62 26t62 -26t26 -62.5t-26 -62t-62 -25.5zM886 433q0 103 -51 191t-139 139t-191 51t-191 -51t-139 -139t-51 -191
q0 -114 61.5 -207.5t161.5 -139.5q-97 -30 -176 -93h668q-116 93 -264 112q157 29 234 117t77 211zM256 690q0 13 9.5 22.5t22.5 9.5t22 -9.5t9 -22.5t-9 -22.5t-22 -9.5t-22.5 9.5t-9.5 22.5zM300 433q0 85 60 145t145 60t145 -60t60 -145t-60 -145t-145 -60t-145 60
t-60 145zM772 207q29 28 50.5 68t27 58.5t7.5 29.5q-1 -13 -6.5 -35t-25 -64.5t-46.5 -67.5q-30 -27 -68 -49t-53.5 -28.5t-24.5 -9.5q5 2 23 11t53.5 34t62.5 53z" />
    <glyph glyph-name="shouye" unicode="&#xe620;" 
d="M510 841l-173 -173v69h-140v-206l-120 -123l25 -25l408 408l408 -411l25 25zM301 634l-71 -70v137h70v-67h1zM197 391v-417h243v244h140v-244h243v417l-313 310l-313 -310v0zM787 8h-173v243h-207v-243h-174v366l277 277l277 -277v-366v0z" />
    <glyph glyph-name="yewyfuwu" unicode="&#xe621;" 
d="M506 819l-436 -167l436 -180l436 179zM844 484l-337 -166l-338 168l-98 -32l435 -239l437 235zM505 62l-333 187l-104 -32l438 -258l433 256l-91 35l-343 -188v0z" />
    <glyph glyph-name="tongjifenxi" unicode="&#xe622;" 
d="M96 797l1 -780l845 -2v-32h-880v814h34v0zM536 763v-678h-169v678q0 14 10 24t24 10h101q14 0 24 -10t10 -24zM333 559v-475h-169v475q0 14 9.5 24t24.5 10h101q14 0 24 -10t10 -24zM740 356v-271h-170v271q0 14 10 24t24 10h101q14 0 24.5 -10.5t10.5 -23.5zM908 186
q14 0 24 -10t10 -24v-68h-169v68q0 14 10 24t24 10h101z" />
    <glyph glyph-name="xunihua" unicode="&#xe623;" 
d="M611 325l-103 -102l-102 102v103h-137v-137l205 -204h68l205 204v341h-136v-307zM269 632h137v-136h-137v136zM893 577q-33 78 -93 137q-60 60 -136 92q-80 34 -167.5 34t-167.5 -34q-77 -33 -137 -92q-60 -60 -92 -137q-34 -80 -34 -167.5t34 -167.5q33 -77 92 -136
q60 -60 137 -92q80 -34 167.5 -34t167.5 34q77 33 136 92q60 60 93 136q34 80 34 168t-34 167zM496.5 28q-103.5 0 -191.5 51t-139.5 139t-51.5 192t51.5 192t139.5 139t191.5 51t191.5 -51t139.5 -139t51.5 -192t-51.5 -192t-139.5 -139t-191.5 -51z" />
    <glyph glyph-name="xunjian" unicode="&#xe624;" 
d="M233 713q-6 7 -15.5 7t-16.5 -7q-58 -59 -90 -133q-32 -78 -32 -163v-1q0 -9 6.5 -15.5t15.5 -6.5t15.5 6.5t6.5 15.5v1q0 75 28.5 143t81.5 121q7 7 7 16t-7 16v0zM498 791v0q75 0 143.5 -28t121.5 -81q6 -7 15.5 -7t16.5 7q6 6 6 15.5t-6 16.5q-59 58 -134 90
q-77 33 -162 33h-1q-10 0 -16.5 -7t-6.5 -16.5t6.5 -16t16.5 -6.5v0zM896 440q-10 0 -16.5 -6.5t-6.5 -16.5v0q0 -75 -28.5 -143.5t-81.5 -122.5q-6 -6 -6 -15.5t6.5 -16t15.5 -6.5t16 6q59 59 90 134q33 78 33 164v0q0 10 -6.5 16.5t-15.5 6.5zM499 42q-75 0 -143.5 28
t-122.5 81q-6 7 -15.5 7t-16 -6.5t-6.5 -16t6 -16.5q58 -57 134 -90q77 -32 163 -32v0q10 0 16.5 6.5t6.5 16t-6.5 16t-15.5 6.5v0zM406 598q43 22 93 22q51 0 96 -24t73 -67q7 -10 19 -10q7 0 13 4q7 5 9 14t-3 17q-35 52 -90 81.5t-117 29.5q-60 0 -113 -27
q-9 -4 -12 -12.5t2 -17.5q4 -8 13 -11t17 1v0zM724.5 439q-9.5 0 -16 -6.5t-6.5 -15.5q0 -78 -51.5 -136t-129.5 -67q-9 -1 -15 -8t-4 -17q0 -8 6.5 -14t15.5 -6h2q94 11 157.5 81.5t63.5 165.5q0 10 -6.5 16.5t-16 6.5zM369 205q4 -4 11 -4q13 0 19 11q5 8 3 17t-10 14
q-46 28 -71.5 74t-25.5 100q0 45 19 85q4 9 1 17.5t-11.5 12.5t-17.5 1t-13 -11q-23 -50 -23 -105q0 -66 31.5 -122t87.5 -90v0z" />
    <glyph glyph-name="inspection" unicode="&#xe625;" 
d="M827 382h-117q-15 0 -23 -8l-23 -23l-172 149q-3 3 -12 3q-21 0 -28 -14l-104 -121h-103q-13 0 -21 -7.5t-8 -21t8 -21t21 -7.5h117q19 -5 29 14l92 109l166 -143l6 -3h20q2 0 4.5 1.5t4.5 1.5q3 0 3 3l32 32h109q13 0 21 7.5t8 20.5q-1 11 -9 19.5t-21 8.5zM512 859
q-98 0 -187.5 -38.5t-154.5 -103t-103 -154t-38 -188t38 -188t103 -154t154.5 -103t187.5 -38.5t187.5 38.5t154.5 103t103 154t38 188t-38 188t-103 154t-154.5 103t-187.5 38.5zM512 -57q-88 0 -168 34.5t-138 92.5t-92 138t-34 167.5t34 167.5t92 138t138 92t168 34
t168 -34t138 -92t92 -138t34 -167.5t-34 -167.5t-92 -138t-138 -92.5t-168 -34.5z" />
    <glyph glyph-name="alarm-dd" unicode="&#xe627;" 
d="M959 125h-92v319q0 133 -87 233t-217 118q2 10 2 13v2q0 22 -16 38t-38 16t-38 -16t-16 -38v-2q0 -2 3 -13q-130 -18 -217.5 -118t-87.5 -233v-123q0 -13 9 -22t22.5 -9t22.5 9t9 22v123q0 121 86 206.5t207 85.5t207 -85.5t86 -206.5v-319h-740q-13 0 -22.5 -9.5
t-9.5 -22.5t9.5 -22t22.5 -9h253q14 -69 68.5 -113.5t125.5 -44.5v0q71 0 125.5 44.5t69.5 112.5l253 1v0q13 0 22 9t9 22t-9 22.5t-22 9.5v0v0zM511 -36v0q-46 0 -82.5 27t-49.5 70l265 1q-13 -44 -49.5 -71t-83.5 -27v0z" />
    <glyph glyph-name="ziyuan" unicode="&#xe628;" 
d="M68 823h863v-722h-863v722zM120 726v-521h759v523h-758q-1 0 -1 -2zM234 58h546v-51h-547v48q0 3 1 3v0z" />
    <glyph glyph-name="gaojing" unicode="&#xe629;" 
d="M538 529q-17 6 -34 6q-45 0 -76.5 -31.5t-31.5 -76.5q0 -36 23 -66l-36 -214l122 172q47 -1 79 33q25 26 29 63l174 131l-208 -40q-19 16 -41 23v0zM465 383q-18 17 -19 42t16 43q24 24 57 16q19 -5 32 -21t13 -36q0 -25 -17.5 -42.5t-42.5 -17.5q-8 0 -15 2
q-15 5 -24 14v0zM497 882q-95 0 -181 -37t-149 -99.5t-100 -149t-37 -181t37 -181t100 -149t149 -99.5t181 -37q90 0 175.5 35.5t151.5 100.5q68 67 104 152.5t36 177.5q0 95 -37 181.5t-99.5 149t-149 99.5t-181.5 37zM780 175l-52 53l-43 -43l52 -53q-92 -78 -209 -88v76
h-62v-76q-119 10 -210 87l53 54l-43 44l-54 -54q-77 91 -87 210h76v61h-76q10 119 88 211l53 -54l44 43l-54 54q91 78 211 88v-77h61v77q119 -10 211 -88l-54 -54l43 -43l54 54q78 -92 87 -211h-76v-61h76q-10 -117 -89 -210v0z" />
    <glyph glyph-name="view" unicode="&#xe62a;" 
d="M164 681h-50v-594h792v50h-742v544zM455 349l140 -140l315 315l-70 70l-245 -245l-140 140l-245 -245l70 -70z" />
    <glyph glyph-name="video" unicode="&#xe62b;" 
d="M315 -64l415 1q12 0 20 8t8 19.5t-8 19.5t-20 8h-415q-12 0 -20 -8.5t-8 -19.5t8 -19.5t20 -8.5zM434 117l-138 -131q-9 -7 -9 -18.5t7.5 -20t19 -8.5t19.5 7l139 131q8 8 8.5 19t-7.5 19.5t-19.5 9t-19.5 -7.5zM561 88l150 -142q9 -7 20 -7t19 8.5t7.5 20t-8.5 18.5
l-150 142q-8 8 -19.5 7.5t-19.5 -8.5t-7.5 -19.5t8.5 -19.5zM512 81q102 0 188.5 50t137 136.5t50.5 188.5t-50.5 188.5t-137 137t-188.5 50.5t-188.5 -50.5t-136.5 -137t-50 -188.5t50 -188.5t136.5 -136.5t188.5 -50zM512 136q-87 0 -160.5 42.5t-116.5 116.5t-43 161
t43 161t116.5 116.5t160.5 42.5t161 -42.5t117 -116.5t43 -161t-43 -161t-117 -116.5t-161 -42.5zM512.5 201q82.5 0 141 58.5t58.5 141.5t-58.5 141.5t-141 58.5t-141.5 -58.5t-59 -141.5t59 -141.5t141.5 -58.5zM512 256q-60 0 -102 42.5t-42 102.5t42 102.5t102 42.5
t102.5 -42.5t42.5 -102.5t-42.5 -102.5t-102.5 -42.5z" />
    <glyph glyph-name="shijianjiankong" unicode="&#xe62c;" 
d="M900 390q-29 -14 -30 -15l-358 -165l-358 165l-2 -4l1 4q-22 9 -54 28l-10 5v-11q0 -58 28 -73l353 -159q25 -11 41 -11t43 11l353 159q15 7 21.5 30.5t6.5 42.5v11zM870 209l-358 -165l-358 165l-2 -4l1 4q-21 9 -54 27l-10 6v-11q0 -58 28 -73l353 -159q25 -12 41 -12
t43 12l353 159q15 7 21.5 30t6.5 43v10l-31 -15zM117 491l353 -159q25 -12 41 -12t43 12l353 159q23 10 24 42q1 34 -23 48l-353 186q-23 13 -40.5 13.5t-44.5 -13.5l-354 -187q-25 -16 -23 -48q1 -29 24 -41zM166 536l346 186l346 -186l-346 -145zM166 536z" />
    <glyph glyph-name="xuni" unicode="&#xe62d;" 
d="M361 342q-42 41 -67 86.5t-25 85.5q0 92 72 156t171 64t171 -64t72 -156v-18v-8v-11v-5l53 -7v49q0 76 -41 139.5t-109 99t-146 35.5t-146 -35.5t-109 -99t-41 -139.5q0 -56 31 -111.5t76 -99.5zM264 519q-66 0 -115.5 -41.5t-72 -101.5t-22.5 -127t38.5 -129.5
t101.5 -101t129 -38.5h378q67 0 129.5 38.5t101 101t38.5 129.5t-38.5 130t-101 101.5t-129.5 38.5q-33 0 -47.5 -0.5t-39 -5.5t-41.5 -16l28 -46q14 9 37 12q17 2 57 2h6q80 0 147.5 -68t67.5 -148t-67.5 -147.5t-147.5 -67.5h-378q-80 0 -147.5 67.5t-67.5 147.5
q0 89 43 152q44 64 113 64v54zM485 653q-58 0 -96.5 -38t-38.5 -96q0 -48 32 -93q16 -22 32 -36q8 -7 19.5 -6t18.5 9.5t6 19.5t-10 19q-10 9 -22 25q-22 31 -22 62q0 36 22.5 58.5t58.5 22.5q11 0 19 7.5t8 19t-8 19t-19 7.5z" />
    <glyph glyph-name="D" unicode="&#xe62e;" 
d="M581 -104q-5 0 -9 1l-525 162q-9 3 -15.5 11.5t-6.5 18.5v113h62v-91l463 -143v535l-463 111v-234h-62v272q0 13 9 22t22 9q4 0 7 -1l525 -124q11 -3 17.5 -11.5t6.5 -18.5v-602q0 -12 -9 -21t-22 -9zM581 528l387 176v-526l-387 -252v602zM581 -104q-17 0 -26 14
q-7 10 -4 22.5t13 19.5l373 243v462l-343 -157q-12 -5 -24 -1t-17 16t-0.5 23.5t15.5 17.5l387 176q6 3 13 3q13 0 22 -9t9 -22v-526v0q0 -17 -14 -26l-387 -251q-8 -5 -17 -5v0zM56 622q-20 0 -28 18q-5 11 -0.5 23t15.5 17l383 174q6 3 12 3q4 0 7 -1l530 -122
q12 -3 19 -13.5t4 -22.5q-3 -11 -11.5 -17.5t-18.5 -6.5q-4 0 -7 1l-519 119l-373 -170q-6 -2 -13 -2z" />
  </font>
</defs>
</svg>
